<?xml version="1.0" encoding="utf-8"?>
<!-- Generator: Adobe Illustrator 24.1.3, SVG Export Plug-In . SVG Version: 6.00 Build 0)  -->
<svg version="1.1" id="Camada_1" xmlns="http://www.w3.org/2000/svg" xmlns:xlink="http://www.w3.org/1999/xlink" x="0px" y="0px"
	 viewBox="0 0 182 184.6" style="enable-background:new 0 0 182 184.6;" xml:space="preserve">
<style type="text/css">
	.st0{fill:url(#SVGID_1_);}
	.st1{fill:url(#SVGID_2_);}
	.st2{fill:url(#SVGID_3_);}
	.st3{fill:url(#SVGID_4_);}
	.st4{fill:url(#SVGID_5_);}
	.st5{fill:url(#SVGID_6_);}
	.st6{fill:url(#SVGID_7_);}
	.st7{fill:url(#SVGID_8_);}
	.st8{fill:url(#SVGID_9_);}
	.st9{fill:url(#SVGID_10_);}
	.st10{fill:url(#SVGID_11_);}
	.st11{fill:url(#SVGID_12_);}
</style>
<g>
	<radialGradient id="SVGID_1_" cx="98.3102" cy="111.8246" r="26.744" gradientUnits="userSpaceOnUse">
		<stop  offset="0" style="stop-color:#80BC00"/>
		<stop  offset="1" style="stop-color:#45A041"/>
	</radialGradient>
	<path class="st0" d="M81.6,142c-1-24.6,23.2-44.2,23.2-44.2c-29,18.7-26.5,35.4-26.5,35.4c-16.2-39.3,42.8-51.6,42.8-51.6
		c-8.2,5.2-6.1,20.9-12.5,35.3c-6.3,14.4-23.6,18.9-23.6,18.9c-0.5,1.9-0.5,3.9-0.3,6.1H81.6z"/>
	<radialGradient id="SVGID_2_" cx="75.1418" cy="88.7467" r="19.1132" gradientUnits="userSpaceOnUse">
		<stop  offset="0" style="stop-color:#80BC00"/>
		<stop  offset="1" style="stop-color:#45A041"/>
	</radialGradient>
	<path class="st1" d="M82.7,97.7c-2.3-4.6-5.9-9.9-11.8-16c0,0,6.1,7.8,9.4,18.5c-1.6,1.9-3.1,4-4.2,6.2c-0.9,1.8-1.7,3.5-2.2,5.4
		c-3.8-3.3-8.3-8.5-9.6-15.4C62,83.6,66.5,71.4,61,65.7c0,0,22.3,10.3,28.4,26.4C87,93.8,84.7,95.6,82.7,97.7z"/>
</g>
<radialGradient id="SVGID_3_" cx="75.0249" cy="57.934" r="78.8717" gradientUnits="userSpaceOnUse">
	<stop  offset="0" style="stop-color:#80BC00"/>
	<stop  offset="1" style="stop-color:#45A041"/>
</radialGradient>
<path class="st2" d="M109.5,163.2c0,2.1-1.7,3.8-3.8,3.8H71.6c-2.1,0-3.8-1.7-3.8-3.8l0,0c0-2.1,1.7-3.7,3.8-3.7h34.2
	C107.9,159.5,109.5,161.2,109.5,163.2L109.5,163.2z"/>
<radialGradient id="SVGID_4_" cx="75.0241" cy="57.9276" r="78.8757" gradientUnits="userSpaceOnUse">
	<stop  offset="0" style="stop-color:#80BC00"/>
	<stop  offset="1" style="stop-color:#45A041"/>
</radialGradient>
<path class="st3" d="M75.5,179.7c-2.1,0-3.8-1.7-3.8-3.8l0,0c0-2.1,1.7-3.8,3.8-3.8h26.3c2.1,0,3.8,1.7,3.8,3.8l0,0
	c0,2.1-1.7,3.8-3.8,3.8"/>
<radialGradient id="SVGID_5_" cx="75.0256" cy="57.9396" r="78.868" gradientUnits="userSpaceOnUse">
	<stop  offset="0" style="stop-color:#80BC00"/>
	<stop  offset="1" style="stop-color:#45A041"/>
</radialGradient>
<path class="st4" d="M113.9,153.5h-11c0-11.3,6.1-21.3,12-31c6.2-10,12.5-20.4,12.5-32.6c0-21.4-17.4-38.7-38.7-38.7
	C67.3,51.2,50,68.6,50,89.9c0,12.2,6.4,22.6,12.5,32.6c5.9,9.7,12,19.7,12,31h-11c0-8.2-5.1-16.5-10.4-25.2
	C46.5,117.4,39,105.2,39,89.9c0-27.4,22.3-49.7,49.7-49.7s49.7,22.3,49.7,49.7c0,15.3-7.5,27.5-14.1,38.3
	C118.9,137,113.9,145.3,113.9,153.5z"/>
<radialGradient id="SVGID_6_" cx="75.0247" cy="57.9369" r="78.8656" gradientUnits="userSpaceOnUse">
	<stop  offset="0" style="stop-color:#80BC00"/>
	<stop  offset="1" style="stop-color:#45A041"/>
</radialGradient>
<path class="st5" d="M95.4,26.6V4H84.6v22.4c1.4-0.1,2.8-0.2,4.2-0.2C91,26.3,93.2,26.4,95.4,26.6z"/>
<radialGradient id="SVGID_7_" cx="75.0302" cy="57.9407" r="78.8617" gradientUnits="userSpaceOnUse">
	<stop  offset="0" style="stop-color:#80BC00"/>
	<stop  offset="1" style="stop-color:#45A041"/>
</radialGradient>
<path class="st6" d="M138,18l-9.3-5.4l-11.8,20.2c3.2,1.6,6.3,3.5,9.2,5.6L138,18z"/>
<radialGradient id="SVGID_8_" cx="75.0256" cy="57.939" r="78.8673" gradientUnits="userSpaceOnUse">
	<stop  offset="0" style="stop-color:#80BC00"/>
	<stop  offset="1" style="stop-color:#45A041"/>
</radialGradient>
<path class="st7" d="M167.9,51.5l-5.3-9.4l-21.1,12c2,3,3.8,6.1,5.3,9.4L167.9,51.5z"/>
<radialGradient id="SVGID_9_" cx="75.0237" cy="57.9397" r="78.8684" gradientUnits="userSpaceOnUse">
	<stop  offset="0" style="stop-color:#80BC00"/>
	<stop  offset="1" style="stop-color:#45A041"/>
</radialGradient>
<path class="st8" d="M51.3,12.6L42,18l11.2,19.2c3-2,6.1-3.8,9.4-5.3L51.3,12.6z"/>
<radialGradient id="SVGID_10_" cx="75.0281" cy="57.9394" r="78.8734" gradientUnits="userSpaceOnUse">
	<stop  offset="0" style="stop-color:#80BC00"/>
	<stop  offset="1" style="stop-color:#45A041"/>
</radialGradient>
<path class="st9" d="M17.5,42.1l-5.3,9.4l19.2,10.9c1.6-3.3,3.4-6.4,5.5-9.3L17.5,42.1z"/>
<radialGradient id="SVGID_11_" cx="75.025" cy="57.9389" r="78.8685" gradientUnits="userSpaceOnUse">
	<stop  offset="0" style="stop-color:#80BC00"/>
	<stop  offset="1" style="stop-color:#45A041"/>
</radialGradient>
<path class="st10" d="M176.9,84.6l-24.7-0.2c0.2,1.8,0.3,3.7,0.3,5.6c0,1.8-0.1,3.5-0.2,5.2l24.6,0.2L176.9,84.6z"/>
<radialGradient id="SVGID_12_" cx="75.0251" cy="57.9395" r="78.8685" gradientUnits="userSpaceOnUse">
	<stop  offset="0" style="stop-color:#80BC00"/>
	<stop  offset="1" style="stop-color:#45A041"/>
</radialGradient>
<path class="st11" d="M25.4,84.4L3.1,84.6l0.1,10.8l22.2-0.2c-0.1-1.7-0.2-3.5-0.2-5.2C25.1,88.1,25.2,86.2,25.4,84.4z"/>
</svg>
