<?xml version="1.0" encoding="utf-8"?>
<!-- Generator: Adobe Illustrator 24.1.3, SVG Export Plug-In . SVG Version: 6.00 Build 0)  -->
<svg version="1.1" id="Camada_1" xmlns="http://www.w3.org/2000/svg" xmlns:xlink="http://www.w3.org/1999/xlink" x="0px" y="0px"
	 viewBox="0 0 182 134.1" style="enable-background:new 0 0 182 134.1;" xml:space="preserve">
<style type="text/css">
	.st0{enable-background:new    ;}
	.st1{fill:#312153;}
	.st2{fill:url(#SVGID_1_);}
	.st3{fill:url(#SVGID_2_);}
	.st4{fill:url(#SVGID_3_);}
	.st5{fill:url(#SVGID_4_);}
	.st6{fill:url(#SVGID_5_);}
	.st7{fill:url(#SVGID_6_);}
	.st8{fill:url(#SVGID_7_);}
	.st9{fill:url(#SVGID_8_);}
	.st10{fill:url(#SVGID_9_);}
	.st11{fill:url(#SVGID_10_);}
	.st12{fill:url(#SVGID_11_);}
	.st13{fill:url(#SVGID_12_);}
</style>
<g>
	<g>
		<g>
			<g class="st0">
				<path class="st1" d="M15.6,123.4H8.4v5.6H17v3H4.4v-19.6H17v3H8.4v4.9h7.3V123.4z"/>
				<path class="st1" d="M34.5,125.6L34.5,125.6c0.1,2.2-0.6,3.8-1.9,5c-1.3,1.2-3.1,1.8-5.4,1.8c-2.4,0-4.2-0.8-5.7-2.3
					c-1.4-1.5-2.2-3.5-2.2-5.9v-3.9c0-2.4,0.7-4.3,2.1-5.9c1.4-1.5,3.3-2.3,5.5-2.3c2.4,0,4.3,0.6,5.6,1.8c1.3,1.2,2,2.8,2,4.9
					l0,0.1h-3.8c0-1.3-0.3-2.2-0.9-2.8c-0.6-0.6-1.5-0.9-2.8-0.9c-1.2,0-2.1,0.5-2.8,1.4c-0.7,0.9-1,2.2-1,3.7v3.9
					c0,1.5,0.3,2.7,1,3.7c0.7,1,1.7,1.4,2.9,1.4c1.2,0,2.1-0.3,2.6-0.9c0.6-0.6,0.9-1.6,0.9-2.8H34.5z"/>
				<path class="st1" d="M53.2,124c0,2.4-0.8,4.4-2.3,6s-3.5,2.3-5.9,2.3c-2.4,0-4.4-0.8-5.9-2.4s-2.3-3.6-2.3-6v-3.5
					c0-2.4,0.8-4.4,2.3-6s3.5-2.4,5.9-2.4c2.4,0,4.4,0.8,5.9,2.4c1.5,1.6,2.3,3.6,2.3,6V124z M49.3,120.5c0-1.5-0.4-2.8-1.1-3.8
					c-0.8-1-1.8-1.5-3.2-1.5c-1.3,0-2.4,0.5-3.1,1.5c-0.7,1-1.1,2.2-1.1,3.8v3.6c0,1.6,0.4,2.8,1.1,3.8c0.7,1,1.8,1.5,3.1,1.5
					c1.3,0,2.4-0.5,3.1-1.5c0.8-1,1.1-2.2,1.1-3.8V120.5z"/>
				<path class="st1" d="M60.2,129H69v3H56.3v-19.6h3.9V129z"/>
				<path class="st1" d="M75.5,129h8.8v3H71.6v-19.6h3.9V129z"/>
				<path class="st1" d="M98.1,123.4h-7.3v5.6h8.6v3H86.9v-19.6h12.5v3h-8.6v4.9h7.3V123.4z"/>
				<path class="st1" d="M117,125.6L117,125.6c0.1,2.2-0.6,3.8-1.9,5c-1.3,1.2-3.1,1.8-5.4,1.8c-2.4,0-4.2-0.8-5.7-2.3
					c-1.4-1.5-2.2-3.5-2.2-5.9v-3.9c0-2.4,0.7-4.3,2.1-5.9s3.3-2.3,5.5-2.3c2.4,0,4.3,0.6,5.6,1.8c1.3,1.2,2,2.8,2,4.9l0,0.1h-3.8
					c0-1.3-0.3-2.2-0.9-2.8c-0.6-0.6-1.5-0.9-2.8-0.9c-1.2,0-2.1,0.5-2.8,1.4c-0.7,0.9-1,2.2-1,3.7v3.9c0,1.5,0.3,2.7,1,3.7
					c0.7,1,1.7,1.4,2.9,1.4c1.2,0,2.1-0.3,2.6-0.9c0.6-0.6,0.9-1.6,0.9-2.8H117z"/>
				<path class="st1" d="M133.1,115.5h-5.6V132h-3.9v-16.6H118v-3h15.1V115.5z"/>
				<path class="st1" d="M139.4,132h-3.9v-19.6h3.9V132z"/>
				<path class="st1" d="M159.2,124c0,2.4-0.8,4.4-2.3,6s-3.5,2.3-5.9,2.3c-2.4,0-4.4-0.8-5.9-2.4s-2.3-3.6-2.3-6v-3.5
					c0-2.4,0.8-4.4,2.3-6s3.5-2.4,5.9-2.4c2.4,0,4.4,0.8,5.9,2.4c1.5,1.6,2.3,3.6,2.3,6V124z M155.3,120.5c0-1.5-0.4-2.8-1.1-3.8
					c-0.8-1-1.8-1.5-3.2-1.5c-1.3,0-2.4,0.5-3.1,1.5c-0.7,1-1.1,2.2-1.1,3.8v3.6c0,1.6,0.4,2.8,1.1,3.8c0.7,1,1.8,1.5,3.1,1.5
					c1.3,0,2.4-0.5,3.1-1.5c0.8-1,1.1-2.2,1.1-3.8V120.5z"/>
				<path class="st1" d="M178.1,132h-3.9l-7.9-13.2l-0.1,0V132h-3.9v-19.6h3.9l7.9,13.2l0.1,0v-13.2h3.9V132z"/>
			</g>
		</g>
	</g>
	<g>
		<g>
			
				<radialGradient id="SVGID_1_" cx="93.1512" cy="66.4304" r="16.3114" gradientTransform="matrix(1 0 0 -1 0 133.1654)" gradientUnits="userSpaceOnUse">
				<stop  offset="0" style="stop-color:#80BC00"/>
				<stop  offset="1" style="stop-color:#45A041"/>
			</radialGradient>
			<path class="st2" d="M83,85.1c-0.6-15,14.2-26.9,14.2-26.9C79.4,69.6,81,79.8,81,79.8c-9.9-24,26.1-31.4,26.1-31.4
				c-5,3.1-3.7,12.8-7.6,21.6S85.1,81.6,85.1,81.6c-0.3,1.1-0.3,2.4-0.2,3.7H83V85.1z"/>
			
				<radialGradient id="SVGID_2_" cx="79.0207" cy="80.5058" r="11.6573" gradientTransform="matrix(1 0 0 -1 0 133.1654)" gradientUnits="userSpaceOnUse">
				<stop  offset="0" style="stop-color:#80BC00"/>
				<stop  offset="1" style="stop-color:#45A041"/>
			</radialGradient>
			<path class="st3" d="M83.6,58.1c-1.4-2.8-3.6-6.1-7.2-9.7c0,0,3.7,4.8,5.8,11.3c-1,1.2-1.9,2.4-2.6,3.8c-0.6,1.1-1,2.2-1.4,3.3
				c-2.3-2-5-5.2-5.8-9.4c-1.4-7.7,1.3-15.2-2.1-18.6c0,0,13.6,6.3,17.3,16.1C86.2,55.7,84.9,56.9,83.6,58.1z"/>
		</g>
		
			<radialGradient id="SVGID_3_" cx="78.9493" cy="99.2988" r="48.1046" gradientTransform="matrix(1 0 0 -1 0 133.1654)" gradientUnits="userSpaceOnUse">
			<stop  offset="0" style="stop-color:#80BC00"/>
			<stop  offset="1" style="stop-color:#45A041"/>
		</radialGradient>
		<path class="st4" d="M100,98.1c0,1.3-1,2.3-2.3,2.3H76.9c-1.3,0-2.3-1-2.3-2.3l0,0c0-1.3,1-2.3,2.3-2.3h20.9
			C99,95.8,100,96.8,100,98.1L100,98.1z"/>
		
			<radialGradient id="SVGID_4_" cx="78.9489" cy="99.3027" r="48.107" gradientTransform="matrix(1 0 0 -1 0 133.1654)" gradientUnits="userSpaceOnUse">
			<stop  offset="0" style="stop-color:#80BC00"/>
			<stop  offset="1" style="stop-color:#45A041"/>
		</radialGradient>
		<path class="st5" d="M97.6,105.9c0,1.3-1,2.3-2.3,2.3H79.2c-1.3,0-2.3-1-2.3-2.3l0,0c0-1.3,1-2.3,2.3-2.3h16.1
			C96.6,103.6,97.6,104.6,97.6,105.9L97.6,105.9z"/>
		
			<radialGradient id="SVGID_5_" cx="78.9498" cy="99.2954" r="48.1023" gradientTransform="matrix(1 0 0 -1 0 133.1654)" gradientUnits="userSpaceOnUse">
			<stop  offset="0" style="stop-color:#80BC00"/>
			<stop  offset="1" style="stop-color:#45A041"/>
		</radialGradient>
		<path class="st6" d="M102.6,92.1h-6.7c0-6.9,3.7-13,7.3-18.9c3.8-6.1,7.6-12.4,7.6-19.9c0-13-10.6-23.6-23.6-23.6
			S63.6,40.3,63.6,53.3c0,7.4,3.9,13.8,7.6,19.9c3.6,5.9,7.3,12,7.3,18.9h-6.7c0-5-3.1-10-6.4-15.4c-4-6.6-8.6-14.1-8.6-23.4
			C57,36.7,70.6,23,87.3,23s30.3,13.6,30.3,30.3c0,9.3-4.6,16.8-8.6,23.4C105.7,82.1,102.6,87.1,102.6,92.1z"/>
		
			<radialGradient id="SVGID_6_" cx="78.9492" cy="99.297" r="48.1008" gradientTransform="matrix(1 0 0 -1 0 133.1654)" gradientUnits="userSpaceOnUse">
			<stop  offset="0" style="stop-color:#80BC00"/>
			<stop  offset="1" style="stop-color:#45A041"/>
		</radialGradient>
		<path class="st7" d="M91.4,14.8V1h-6.6v13.6c0.8-0.1,1.7-0.1,2.6-0.1C88.7,14.6,90.1,14.6,91.4,14.8z"/>
		
			<radialGradient id="SVGID_7_" cx="78.9526" cy="99.2947" r="48.0985" gradientTransform="matrix(1 0 0 -1 0 133.1654)" gradientUnits="userSpaceOnUse">
			<stop  offset="0" style="stop-color:#80BC00"/>
			<stop  offset="1" style="stop-color:#45A041"/>
		</radialGradient>
		<path class="st8" d="M117.4,9.5l-5.7-3.3l-7.2,12.3c2,1,3.9,2.1,5.6,3.4L117.4,9.5z"/>
		
			<radialGradient id="SVGID_8_" cx="78.9498" cy="99.2957" r="48.1018" gradientTransform="matrix(1 0 0 -1 0 133.1654)" gradientUnits="userSpaceOnUse">
			<stop  offset="0" style="stop-color:#80BC00"/>
			<stop  offset="1" style="stop-color:#45A041"/>
		</radialGradient>
		<path class="st9" d="M135.6,29.9l-3.3-5.7l-12.9,7.3c1.2,1.8,2.3,3.7,3.2,5.7L135.6,29.9z"/>
		
			<radialGradient id="SVGID_9_" cx="78.9486" cy="99.2953" r="48.1026" gradientTransform="matrix(1 0 0 -1 0 133.1654)" gradientUnits="userSpaceOnUse">
			<stop  offset="0" style="stop-color:#80BC00"/>
			<stop  offset="1" style="stop-color:#45A041"/>
		</radialGradient>
		<path class="st10" d="M64.5,6.2l-5.7,3.3l6.8,11.7c1.8-1.2,3.7-2.3,5.8-3.2L64.5,6.2z"/>
		
			<radialGradient id="SVGID_10_" cx="78.9513" cy="99.2955" r="48.1056" gradientTransform="matrix(1 0 0 -1 0 133.1654)" gradientUnits="userSpaceOnUse">
			<stop  offset="0" style="stop-color:#80BC00"/>
			<stop  offset="1" style="stop-color:#45A041"/>
		</radialGradient>
		<path class="st11" d="M43.9,24.2l-3.3,5.7l11.7,6.7c1-2,2.1-3.9,3.4-5.7L43.9,24.2z"/>
		
			<radialGradient id="SVGID_11_" cx="78.9494" cy="99.2958" r="48.1026" gradientTransform="matrix(1 0 0 -1 0 133.1654)" gradientUnits="userSpaceOnUse">
			<stop  offset="0" style="stop-color:#80BC00"/>
			<stop  offset="1" style="stop-color:#45A041"/>
		</radialGradient>
		<path class="st12" d="M141.1,50.1L126,50c0.1,1.1,0.2,2.3,0.2,3.4c0,1.1-0.1,2.1-0.1,3.2l15,0.1V50.1z"/>
		
			<radialGradient id="SVGID_12_" cx="78.9494" cy="99.2954" r="48.1026" gradientTransform="matrix(1 0 0 -1 0 133.1654)" gradientUnits="userSpaceOnUse">
			<stop  offset="0" style="stop-color:#80BC00"/>
			<stop  offset="1" style="stop-color:#45A041"/>
		</radialGradient>
		<path class="st13" d="M48.7,50l-13.6,0.1l0.1,6.6l13.5-0.1c-0.1-1.1-0.1-2.1-0.1-3.2C48.5,52.2,48.6,51.1,48.7,50z"/>
	</g>
</g>
</svg>
